<?xml version="1.0" encoding="utf-8"?>
<svg viewBox="81.093 22.016 52.878 68.266" xmlns="http://www.w3.org/2000/svg">
  <circle cx="100.916" cy="49.002" r="19.823" fill="#000000"/>
  <path d="M 85.168 47.358 C 85.168 40.326 90.301 35.93 94.407 39.447 C 96.313 41.08 97.486 44.095 97.486 47.358" style="fill-rule: nonzero; paint-order: stroke markers; fill: rgb(255, 255, 255);"/>
  <path d="M 85.871 36.15 L 89.426 22.434 L 101.833 32.414 L 85.871 36.15 Z" fill="#000000"/>
  <path d="M 100.207 31.755 L 111.848 22.016 L 115.228 35.68 L 100.207 31.755 Z" fill="#000000"/>
  <path d="M 110.336 82.054 L 112.779 86.663 L 125.017 84.706 L 121.76 79.636 L 110.336 82.054 Z" fill="#000000" style=""/>
  <path d="M 90.021 89.136 L 94.021 89.136" stroke="#000000" stroke-width="2"/>
  <rect x="90.261" y="63.646" width="22.773" height="26.636" fill="#000000" style="" rx="5.451" ry="5.451"/>
  <path d="M 103.702 47.314 C 103.702 40.282 108.835 35.886 112.941 39.403 C 114.847 41.036 116.02 44.051 116.02 47.314" style="fill-rule: nonzero; paint-order: stroke markers; fill: rgb(255, 255, 255);"/>
  <path d="M 97.168 84.277 L 101.168 84.277" stroke="#000000" stroke-width="2"/>
  <path d="M 109.463 89.014 L 113.463 89.014" stroke="#000000" stroke-width="2"/>
  <path d="M 119.073 80.46 L 124.734 84.965 L 133.971 81.823 L 133.562 71.326 L 119.073 80.46 Z" fill="#000000" style=""/>
  <path style="fill: rgb(216, 216, 216); stroke: rgb(0, 0, 0);" d="M 101.08 53.581 L 101.127 52.758"/>
</svg>